<!-- icon666.com - MILLIONS OF FREE VECTOR ICONS --><svg id="Layer_1" viewBox="0 0 512 512" xmlns="http://www.w3.org/2000/svg" data-name="Layer 1"><path d="m380 0h-248c-72.785 0-132 59.214-132 132v248c0 72.785 59.215 132 132 132h248c72.784 0 132-59.214 132-132v-248c0-72.786-59.215-132-132-132zm100 380a100.112 100.112 0 0 1 -100 100h-248a100.112 100.112 0 0 1 -100-100v-248a100.112 100.112 0 0 1 100-100h248a100.112 100.112 0 0 1 100 100zm-92-124a16 16 0 0 1 -16 16h-100v100a16 16 0 0 1 -32 0v-100h-100a16 16 0 0 1 0-32h100v-100a16 16 0 0 1 32 0v100h100a16 16 0 0 1 16 16z" fill="#000000" style="fill: rgb(255, 255, 255);"></path></svg>